<svg width="6803" height="781" viewBox="0 0 6803 781" fill="none" xmlns="http://www.w3.org/2000/svg">
<path d="M4301.62 213.867L4294.27 224.281C4287.67 233.198 4287.67 233.198 4279.7 241.162C4277.19 249.329 4277.19 249.329 4275.76 257.021H4263.78V264.916L4255.81 272.88V280.843H4263.78L4271.74 292.755V308.614H4279.7C4304.76 346.094 4317.75 405.487 4317.34 458.902L4317.28 473.74C4315.47 572.472 4252.66 671.991 4172.5 724.356C4134.11 746.681 4096.61 760.294 4052.3 764.037C4044.47 764.65 4044.47 764.65 4036.85 769.006C4025.41 769.415 4014.11 769.551 4002.75 769.483L3993.15 769.551C3985.12 769.483 3977.16 769.278 3969.12 769.006L3965.18 764.99C3957.62 763.629 3950.07 762.404 3942.51 761.315C3925.36 758.524 3909.7 755.461 3893.5 749.131L3883.77 745.388C3745.47 691.436 3676.09 554.548 3690.4 407.853C3708.45 320.521 3807.15 189.021 3909.63 161.253L3924.2 157.237L3937.27 153.834L3944.76 151.656C3993.08 141.242 4052.78 146.007 4099.6 160.913L4112.47 165.745L4125.88 170.646C4146.77 178.882 4166.58 187.322 4184.14 201.412V209.375C4195.58 211.009 4195.58 211.009 4208.03 209.375C4215.45 200.595 4215.45 200.595 4220.01 189.568L4224.71 180.379L4227.98 173.641H4239.89V165.745H4251.87C4271.74 180.381 4279.7 160.91 4301.62 213.867Z" fill="#E02022"/>
<path d="M4414.71 0L4431.02 10.9648L4450.96 38.7354L4443 46.631C4389.22 112.854 4383.24 125 4275.76 257.02C4252.88 275.215 4243.09 300.603 4226.48 324.473C4164 416.36 4102.61 520.908 4064.56 625.524C4060.75 634.032 4060.75 634.033 4054.82 639.818L4047.54 644.719C4031.95 655.677 4016.78 667.044 4001.73 678.683C3989.75 687.94 3977.77 697.061 3965.18 705.501H3953.2L3949.32 693.385C3944.42 678.207 3939.52 663.096 3934.55 647.918C3932.44 641.452 3930.33 634.917 3928.22 628.451C3908.55 566.988 3886.09 501.238 3837.76 455.974C3831.3 450.325 3824.56 444.948 3817.82 439.571C3826.53 420.717 3838.45 406.083 3853.69 391.925C3868.05 382.328 3881.6 376.678 3898.89 375.317C3908.82 375.862 3915.97 376.542 3925.36 380.014C3945.24 393.899 3955.38 407.716 3965.66 429.429L3969.74 437.733C3980.7 460.807 3987.85 483.813 3993.91 508.657L3997.04 518.934L4005 522.95L4007.86 513.013C4013.92 496.541 4021.74 481.907 4030.39 466.592L4035.63 457.199C4077.63 383.417 4125.07 312.765 4177 245.653C4185.24 234.967 4191.84 226.187 4196.13 213.322C4337.21 46.631 4338.31 44.769 4414.71 0Z" fill="#FEFEFE"/>
<path d="M6422.55 770V188H6801.46V289.452H6541.44V428.132H6781.96V529.584H6541.44V668.548H6802.55V770H6422.55Z" fill="black"/>
<path d="M6121.7 770H5922.55V188H6123.35C6179.85 188 6228.5 199.651 6269.28 222.954C6310.06 246.067 6341.42 279.316 6363.36 322.701C6385.49 366.086 6396.55 417.996 6396.55 478.432C6396.55 539.057 6385.49 591.156 6363.36 634.73C6341.42 678.305 6309.87 711.743 6268.73 735.046C6227.76 758.349 6178.76 770 6121.7 770ZM6041.33 664.569H6116.76C6151.87 664.569 6181.41 658.128 6205.36 645.245C6229.5 632.173 6247.61 611.996 6259.68 584.715C6271.93 557.244 6278.05 521.816 6278.05 478.432C6278.05 435.426 6271.93 400.282 6259.68 373.001C6247.61 345.72 6229.59 325.638 6205.64 312.755C6181.68 299.872 6152.15 293.431 6117.04 293.431H6041.33V664.569Z" fill="black"/>
<path d="M5496.91 770H5369.55L5563.61 188H5716.77L5910.55 770H5783.19L5642.39 320.996H5638L5496.91 770ZM5488.95 541.235H5789.78V637.288H5488.95V541.235Z" fill="black"/>
<path d="M4926.55 770V188H5148.19C5190.62 188 5226.82 195.862 5256.81 211.587C5286.99 227.122 5309.94 249.193 5325.66 277.801C5341.57 306.219 5349.53 339.657 5349.53 378.116C5349.53 416.765 5341.48 450.014 5325.39 477.863C5309.3 505.523 5285.98 526.742 5255.44 541.52C5225.09 556.297 5188.33 563.686 5145.17 563.686H4996.78V464.791H5125.97C5148.65 464.791 5167.48 461.57 5182.48 455.129C5197.47 448.688 5208.63 439.025 5215.94 426.143C5223.44 413.26 5227.19 397.251 5227.19 378.116C5227.19 358.792 5223.44 342.499 5215.94 329.237C5208.63 315.976 5197.38 305.935 5182.2 299.114C5167.21 292.104 5148.28 288.6 5125.42 288.6H5045.33V770H4926.55ZM5229.93 505.145L5369.55 770H5238.44L5101.83 505.145H5229.93Z" fill="black"/>
<path d="M4758.47 376.112C4754.63 362.28 4749.22 350.059 4742.26 339.448C4735.31 328.647 4726.79 319.552 4716.72 312.163C4706.83 304.583 4695.48 298.804 4682.66 294.825C4670.02 290.846 4656.01 288.857 4640.63 288.857C4611.88 288.857 4586.61 296.246 4564.81 311.026C4543.21 325.805 4526.36 347.311 4514.27 375.544C4502.19 403.587 4496.14 437.883 4496.14 478.432C4496.14 518.98 4502.09 553.466 4514 581.888C4525.9 610.31 4542.75 632.005 4564.54 646.974C4586.33 661.754 4612.06 669.144 4641.73 669.144C4668.65 669.144 4691.63 664.217 4710.67 654.364C4729.9 644.322 4744.55 630.205 4754.63 612.015C4764.88 593.825 4770.01 572.319 4770.01 547.497L4794.18 551.192H4649.14V458.536H4884.55V531.865C4884.55 583.025 4874.12 626.984 4853.24 663.743C4832.36 700.313 4803.61 728.546 4766.99 748.441C4730.36 768.147 4688.42 778 4641.18 778C4588.44 778 4542.11 765.968 4502.19 741.904C4462.26 717.651 4431.13 683.26 4408.79 638.732C4386.63 594.015 4375.55 540.96 4375.55 479.568C4375.55 432.388 4382.15 390.323 4395.33 353.375C4408.7 316.236 4427.38 284.783 4451.37 259.013C4475.36 233.244 4503.28 213.633 4535.15 200.18C4567.01 186.727 4601.53 180 4638.71 180C4670.57 180 4700.24 184.832 4727.71 194.495C4755.17 203.969 4779.53 217.422 4800.77 234.855C4822.2 252.287 4839.69 273.035 4853.24 297.099C4866.79 320.973 4875.49 347.311 4879.33 376.112H4758.47Z" fill="black"/>
<path d="M3297 770.133V188.133H3633.64V250.652H3364.55V447.305H3616.21V509.824H3364.55V707.613H3638V770.133H3297Z" fill="black"/>
<path d="M3183.01 333.542C3179.74 304.754 3166.49 282.406 3143.24 266.496C3120 250.587 3091.5 242.633 3057.72 242.633C3033.03 242.633 3011.42 246.799 2992.9 255.133C2974.56 263.466 2960.22 274.924 2949.87 289.508C2939.7 304.091 2934.62 320.663 2934.62 339.224C2934.62 354.754 2938.16 368.106 2945.24 379.281C2952.5 390.265 2961.76 399.451 2973.02 406.837C2984.28 414.034 2996.08 420 3008.43 424.735C3020.77 429.281 3032.12 432.974 3042.47 435.815L3099.12 451.724C3113.65 455.701 3129.81 461.193 3147.6 468.201C3165.58 475.209 3182.74 484.773 3199.08 496.894C3215.6 508.826 3229.22 524.167 3239.93 542.917C3250.64 561.667 3256 584.678 3256 611.951C3256 643.39 3248.1 671.799 3232.31 697.178C3216.69 722.557 3193.81 742.728 3163.67 757.69C3133.71 772.652 3097.31 780.133 3054.46 780.133C3014.51 780.133 2979.92 773.409 2950.69 759.962C2921.64 746.515 2898.76 727.765 2882.05 703.712C2865.53 679.659 2856.18 651.724 2854 619.906H2923.72C2925.54 641.875 2932.62 660.057 2944.97 674.451C2957.5 688.656 2973.29 699.262 2992.36 706.269C3011.6 713.087 3032.3 716.496 3054.46 716.496C3080.24 716.496 3103.39 712.14 3123.91 703.428C3144.42 694.527 3160.67 682.216 3172.66 666.496C3184.64 650.587 3190.63 632.027 3190.63 610.815C3190.63 591.496 3185.46 575.777 3175.11 563.656C3164.76 551.534 3151.14 541.686 3134.26 534.11C3117.37 526.534 3099.12 519.906 3079.51 514.224L3010.88 493.769C2967.3 480.701 2932.8 462.046 2907.38 437.803C2881.96 413.561 2869.25 381.837 2869.25 342.633C2869.25 310.057 2877.7 281.648 2894.58 257.406C2911.65 232.974 2934.53 214.034 2963.22 200.587C2992.09 186.951 3024.31 180.133 3059.9 180.133C3095.85 180.133 3127.81 186.856 3155.77 200.303C3183.73 213.561 3205.89 231.743 3222.23 254.849C3238.75 277.955 3247.47 304.186 3248.37 333.542H3183.01Z" fill="black"/>
<path d="M2842 188.133V770.133H2774V188.133H2842Z" fill="black"/>
<path d="M2257 770.133V188.133H2324.47V447.305H2621.53V188.133H2689V770.133H2621.53V509.824H2324.47V770.133H2257Z" fill="black"/>
<path d="M2225.55 369.992H2158.24C2154.26 349.718 2147.3 331.907 2137.34 316.559C2127.57 301.211 2115.63 288.326 2101.52 277.905C2087.59 267.294 2072.12 259.336 2055.11 254.03C2038.1 248.725 2020.37 246.072 2001.91 246.072C1968.26 246.072 1937.77 254.978 1910.44 272.789C1883.3 290.6 1861.68 316.843 1845.58 351.518C1829.65 386.193 1821.69 428.731 1821.69 479.133C1821.69 529.535 1829.65 572.073 1845.58 606.748C1861.68 641.423 1883.3 667.666 1910.44 685.477C1937.77 703.288 1968.26 712.194 2001.91 712.194C2020.37 712.194 2038.1 709.541 2055.11 704.235C2072.12 698.93 2087.59 691.067 2101.52 680.645C2115.63 670.034 2127.57 657.055 2137.34 641.707C2147.3 626.17 2154.26 608.358 2158.24 588.274H2225.55C2220.49 618.022 2211.26 644.644 2197.87 668.139C2184.48 691.635 2167.83 711.625 2147.93 728.11C2128.03 744.405 2105.68 756.816 2080.89 765.343C2056.28 773.87 2029.96 778.133 2001.91 778.133C1954.5 778.133 1912.34 766.006 1875.43 741.753C1838.52 717.499 1809.48 683.014 1788.31 638.296C1767.14 593.579 1756.55 540.524 1756.55 479.133C1756.55 417.741 1767.14 364.687 1788.31 319.969C1809.48 275.252 1838.52 240.767 1875.43 216.513C1912.34 192.26 1954.5 180.133 2001.91 180.133C2029.96 180.133 2056.28 184.396 2080.89 192.923C2105.68 201.449 2128.03 213.955 2147.93 230.44C2167.83 246.735 2184.48 266.631 2197.87 290.126C2211.26 313.432 2220.49 340.054 2225.55 369.992Z" fill="black"/>
<path d="M1715.55 188.133V770.133H1650.38L1347.33 313.172H1341.9V770.133H1274.55V188.133H1339.73L1643.86 646.23H1649.3V188.133H1715.55Z" fill="black"/>
<path d="M850.315 770.133H779.554L984.217 188.133H1053.89L1258.55 770.133H1187.79L1021.23 280.207H1016.88L850.315 770.133ZM876.442 542.789H1161.67V605.309H876.442V542.789Z" fill="black"/>
<path d="M381 770.133V188.133H569.085C612.572 188.133 648.268 195.9 676.173 211.436C704.078 226.781 724.734 247.905 738.143 274.808C751.552 301.71 758.256 332.307 758.256 366.598C758.256 400.889 751.552 431.296 738.143 457.819C724.734 484.343 704.168 505.183 676.445 520.339C648.721 535.306 613.297 542.789 570.172 542.789H417.965V479.133H567.997C597.714 479.133 621.632 474.586 639.752 465.492C658.053 456.398 671.281 443.516 679.435 426.844C687.77 409.982 691.937 389.9 691.937 366.598C691.937 343.295 687.77 322.929 679.435 305.499C671.099 288.069 657.781 274.618 639.48 265.146C621.179 255.483 596.989 250.652 566.91 250.652H448.406V770.133H381ZM643.014 508.687L780 770.133H701.722L566.91 508.687H643.014Z" fill="black"/>
<path d="M0 770.133V188.133H335V250.652H67.6547V447.305H309.902V509.824H67.6547V770.133H0Z" fill="black"/>
</svg>
